# xmcd
#
# Track frame offsets: 
#        150
#        38160
#        73003
#        104490
#        147418
#        171435
#        191685
#        217643
#        254175
#
# Disc length: 4206 seconds
#
# Revision: 1
# Processed by: cddbd v1.5.2PL0 Copyright (c) Steve Scherf et al.
# Submitted via: ExactAudioCopyFreeDBPlugin 1.0
#
DISCID=8c106c09
DTITLE=Freddie King - The Blues Is Rising
DYEAR=2012
DGENRE=Blues
TTITLE0=Sweet Home Chicago, Ghetto Woman
TTITLE1=Have You Ever Loved A Woman
TTITLE2=The Moon Is Rising
TTITLE3=It Ain't Nobody's Business
TTITLE4=Big Legged Woman
TTITLE5=Woman Across The River
TTITLE6=Key To The Highway
TTITLE7=Let The Good Times Roll
TTITLE8=Stormy Monday, Little Bluebird
EXTD=YEAR: 1975 ID3G: 0
EXTT0=
EXTT1=
EXTT2=
EXTT3=
EXTT4=
EXTT5=
EXTT6=
EXTT7=
EXTT8=
PLAYORDER=
